<?xml version="1.0" encoding="UTF-8" standalone="no"?>
<!DOCTYPE svg PUBLIC "-//W3C//DTD SVG 1.1//EN" "http://www.w3.org/Graphics/SVG/1.1/DTD/svg11.dtd">
<svg width="100%" height="100%" viewBox="0 0 1024 1024" version="1.1" xmlns="http://www.w3.org/2000/svg" xmlns:xlink="http://www.w3.org/1999/xlink" xml:space="preserve" xmlns:serif="http://www.serif.com/" style="fill-rule:evenodd;clip-rule:evenodd;stroke-linejoin:round;stroke-miterlimit:2;">
    <style>
        .a-svg {
            fill: rgb(179,179,179);
        }
        @media (prefers-color-scheme: light) {
            .a-svg { fill: #0f0f0f; }
        }
    </style>
    <g transform="matrix(1.03953,0,0,1.03953,17.5876,-4.87755)">
        <path class='a-svg' d="M49.357,88.456C79.455,68.171 135.615,53.25 225.274,46.251C268.026,42.913 345.672,60.358 392.946,74.665C405.765,78.545 406.312,79.142 406.312,79.142C462.292,106.503 587.892,250.345 701.366,396.06C850.518,587.588 924.603,864.487 924.603,864.487C924.603,864.487 827.666,668.946 697.451,489.243C685.544,491.221 667.198,489.732 644.057,485.337C660.724,482.43 675.881,479.882 689.18,477.716C671.647,477.71 649.894,477.927 620.818,480.335C602.462,475.977 581.982,470.258 559.971,463.378C600.557,455.783 636.211,449.633 663.842,445.133C635.701,445.124 596.69,445.687 534.006,454.963C521.552,450.791 508.718,446.303 495.601,441.534C550.476,430.863 598.713,422.452 633.923,416.716C601.014,416.706 553.239,417.478 470.124,432.052L469.389,431.772C456.743,426.943 444.147,421.988 431.596,416.915L429.272,415.972C502.081,401.116 566.991,389.665 611.286,382.45C573.122,382.438 514.967,383.478 404.878,405.876C386.105,397.967 367.183,389.67 348.304,381.048C350.808,380.698 353.314,380.35 355.824,380.004C443.593,367.907 523.156,359.608 574.831,354.972C535.069,352.091 473.468,348.786 352.034,365.524C342.44,366.847 333,368.222 323.754,369.637L322.822,369.196C300.51,358.618 278.392,347.636 256.516,336.182L256.341,336.09C271.099,330.118 286.354,324.949 302.137,321.602C388.808,303.221 467.568,289.219 518.776,280.878C478.909,280.865 417.23,282.001 297.315,307.432C273.308,312.524 250.253,317.06 228.76,321.287C218.01,315.377 207.474,309.411 197.179,303.396C218.069,293.915 239.983,285.148 263.02,280.262C349.691,261.881 428.451,247.879 479.658,239.538C439.792,239.525 378.112,240.661 258.197,266.092C225.173,273.096 193.949,279.049 166.103,284.596C144.945,271.324 125.328,257.964 107.785,244.69C141.266,234.636 176.884,223.022 218.224,214.907C305.164,197.843 384.374,186.294 435.932,179.903C395.297,175.344 332.516,169.984 212.229,193.594C163.813,203.097 119.616,214.654 84.251,225.848C72.161,215.55 61.522,205.369 52.608,195.403C86.886,181.585 124.183,163.148 164.329,156.44C251.716,141.839 331.009,131.269 382.531,125.159C342.703,123.415 281.032,121.872 160.126,142.074C110.845,150.308 65.605,156.414 29.422,162.701C24.663,153.241 21.951,144.095 21.561,135.362C54.982,130.341 91.4,125.201 128.812,120.416C216.695,109.176 296.335,101.655 348.053,97.525C308.321,94.255 246.755,90.349 125.163,105.9C88.126,110.637 53.355,116.183 22.927,121.838C23.639,119.084 24.624,116.379 25.889,113.729C50.125,110.052 75.509,106.462 101.382,103.153C189.264,91.914 269.067,85.663 320.937,82.718C280.695,75.465 218.41,65.937 96.818,81.488C80.489,83.577 64.612,85.925 49.357,88.456Z"/>
    </g>
    <g transform="matrix(1.1257,0,0,1,-5.02826,20.0619)">
        <path class='a-svg' d="M873.916,885.019C868.176,881.331 858.419,873.723 853.501,873.723C853.501,873.723 43.994,893.785 48.912,893.785L853.501,920.463C862.744,920.272 873.916,890.555 873.916,885.019Z" />
    </g>
</svg>
