<?xml version="1.0" standalone="no"?>
<!DOCTYPE svg PUBLIC "-//W3C//DTD SVG 20010904//EN"
 "http://www.w3.org/TR/2001/REC-SVG-20010904/DTD/svg10.dtd">
<svg version="1.0" xmlns="http://www.w3.org/2000/svg"
 width="700.000000pt" height="700.000000pt" viewBox="0 0 700.000000 700.000000"
 preserveAspectRatio="xMidYMid meet">
<metadata>
Created by potrace 1.11, written by Peter Selinger 2001-2013
</metadata>
<g transform="translate(0.000000,700.000000) scale(0.100000,-0.100000)"
fill="#000000" stroke="none">
<path d="M1698 6705 c-2 -2 -41 -6 -86 -9 -46 -4 -100 -9 -120 -12 -40 -4 -50
-6 -212 -28 -264 -37 -535 -110 -698 -189 -120 -58 -116 -66 18 -43 42 8 103
16 145 22 22 2 56 6 75 9 19 3 55 7 80 10 25 3 61 7 80 10 53 7 231 22 360 31
97 6 523 6 595 -1 93 -8 244 -24 275 -29 14 -3 45 -7 70 -10 25 -4 59 -10 75
-15 26 -8 23 -10 -30 -11 -33 -1 -71 -3 -85 -4 -14 -2 -78 -6 -142 -10 -65 -4
-128 -9 -140 -11 -13 -2 -63 -6 -113 -10 -49 -3 -106 -8 -125 -10 -19 -2 -69
-7 -110 -10 -41 -3 -91 -8 -110 -10 -19 -2 -62 -6 -95 -10 -33 -3 -73 -7 -90
-9 -16 -2 -57 -6 -90 -10 -33 -3 -76 -8 -95 -11 -19 -3 -57 -7 -85 -11 -27 -3
-61 -7 -75 -9 -14 -1 -52 -6 -84 -9 -33 -4 -75 -9 -95 -12 -20 -3 -52 -7 -71
-10 -19 -2 -48 -6 -65 -9 -16 -2 -52 -7 -80 -10 -47 -5 -66 -8 -139 -20 -16
-2 -50 -7 -75 -11 -53 -8 -71 -19 -71 -45 0 -23 1 -23 87 -5 64 14 103 20 183
32 19 3 76 11 125 19 50 8 110 17 135 20 25 3 77 10 115 15 170 23 388 48 470
55 39 3 88 7 110 10 162 18 653 31 810 21 28 -2 88 -4 135 -5 108 -2 88 -17
-35 -26 -124 -9 -184 -14 -225 -19 -19 -3 -64 -8 -100 -11 -36 -3 -86 -8 -112
-10 -27 -3 -69 -7 -95 -10 -103 -9 -179 -17 -194 -20 -9 -2 -54 -6 -100 -10
-46 -4 -86 -8 -89 -10 -3 -2 -41 -6 -85 -9 -44 -4 -87 -9 -95 -11 -8 -2 -40
-7 -70 -10 -30 -3 -107 -13 -170 -21 -63 -8 -135 -17 -160 -20 -25 -3 -73 -9
-108 -15 -34 -5 -84 -12 -110 -15 -26 -3 -58 -7 -72 -9 -14 -3 -61 -9 -105
-15 -44 -6 -91 -13 -105 -16 -14 -2 -50 -7 -82 -10 -31 -4 -61 -10 -67 -13
-12 -8 10 -116 35 -162 17 -33 2 -32 154 -8 110 18 114 18 150 23 19 3 49 8
65 10 17 3 53 8 80 12 28 3 59 8 70 11 11 2 36 6 55 9 19 2 46 6 60 9 14 2 48
7 75 11 28 3 59 8 70 10 106 21 487 80 580 89 33 3 67 8 75 10 8 2 47 7 85 10
39 3 84 8 100 10 17 2 59 6 95 10 36 3 88 8 115 11 92 9 671 13 642 4 -15 -4
-58 -11 -95 -14 -37 -3 -76 -8 -87 -10 -11 -2 -45 -7 -75 -11 -30 -3 -66 -8
-80 -10 -14 -2 -47 -6 -75 -10 -27 -3 -64 -8 -81 -11 -17 -3 -46 -6 -65 -9
-19 -2 -144 -20 -279 -40 -135 -20 -254 -38 -265 -39 -11 -2 -40 -6 -65 -10
-25 -4 -56 -9 -70 -11 -260 -39 -405 -70 -541 -115 -114 -38 -494 -192 -507
-205 -6 -5 88 -101 184 -188 l31 -28 154 45 c137 40 392 107 459 120 14 3 66
14 115 25 50 11 101 22 115 25 24 4 163 32 206 40 12 2 39 7 60 10 22 3 50 8
64 11 14 2 41 6 60 9 19 3 51 8 70 10 56 9 270 35 330 40 189 19 515 24 652
11 77 -8 128 -12 167 -14 44 -2 15 -11 -70 -21 -46 -6 -100 -13 -119 -16 -19
-3 -51 -7 -70 -10 -44 -6 -306 -44 -342 -50 -16 -2 -43 -6 -60 -9 -18 -3 -44
-7 -58 -10 -14 -3 -41 -7 -60 -10 -19 -3 -46 -8 -60 -10 -14 -3 -41 -7 -60
-10 -19 -2 -44 -6 -55 -8 -25 -5 -79 -15 -125 -22 -19 -3 -48 -8 -65 -12 -16
-3 -39 -7 -50 -9 -11 -2 -33 -6 -50 -9 -16 -3 -66 -13 -110 -21 -274 -52 -425
-89 -719 -176 l-208 -62 28 -23 c42 -33 262 -184 331 -227 l58 -36 140 29
c481 100 1007 202 1113 215 46 6 126 18 152 22 14 2 50 6 80 10 30 3 71 7 90
10 19 2 62 6 95 9 33 3 78 8 100 10 22 3 128 7 235 9 195 5 199 3 35 -23 -33
-6 -85 -14 -115 -20 -30 -5 -71 -12 -90 -16 -49 -8 -201 -36 -225 -41 -11 -3
-36 -7 -55 -10 -19 -3 -78 -14 -130 -24 -52 -11 -111 -22 -130 -25 -19 -3 -53
-10 -75 -15 -22 -5 -56 -12 -75 -15 -27 -5 -317 -63 -400 -80 -133 -28 -305
-80 -385 -115 -22 -10 -61 -27 -87 -39 -27 -11 -48 -22 -48 -24 0 -6 56 -39
152 -91 l67 -36 148 30 c81 17 159 33 173 35 14 3 68 14 120 25 52 11 109 23
125 26 17 3 50 10 75 15 44 10 184 36 245 45 17 3 66 11 110 19 44 8 100 17
125 20 25 3 56 8 70 10 66 9 110 15 160 20 30 4 66 8 80 10 14 2 59 6 100 10
41 3 100 8 130 10 74 7 368 15 355 10 -8 -3 -257 -49 -375 -69 -95 -16 -296
-53 -470 -87 -113 -21 -241 -46 -285 -55 -307 -58 -525 -112 -630 -154 -11 -5
-29 -11 -39 -14 -12 -4 -16 -10 -10 -15 5 -5 110 -59 233 -121 241 -120 232
-118 351 -96 14 3 48 7 75 11 28 3 100 12 160 20 61 8 137 17 170 20 33 4 67
8 75 10 8 2 56 7 105 10 50 4 107 9 129 11 167 16 605 23 823 13 84 -4 114
-11 60 -15 -25 -1 -155 -13 -207 -19 -19 -2 -62 -6 -95 -9 -33 -4 -76 -9 -95
-11 -19 -3 -60 -7 -90 -10 -30 -3 -71 -7 -90 -10 -19 -2 -64 -7 -100 -11 -36
-3 -72 -7 -80 -9 -8 -1 -44 -6 -80 -10 -36 -3 -76 -8 -90 -10 -14 -2 -50 -6
-80 -9 -55 -6 -101 -12 -172 -21 -21 -3 -57 -8 -80 -11 -24 -3 -54 -7 -68 -9
-14 -2 -68 -9 -120 -16 l-95 -13 75 -34 c41 -18 132 -58 202 -88 l127 -56 78
16 c120 25 196 39 273 51 19 3 46 7 60 10 60 11 205 32 280 41 25 3 56 7 70 9
14 2 54 6 90 10 36 3 83 8 105 10 151 15 455 24 455 14 0 -4 -28 -10 -62 -14
-35 -4 -72 -9 -83 -11 -23 -5 -37 -8 -125 -23 -104 -18 -119 -20 -230 -41
-121 -23 -167 -31 -195 -36 -71 -11 -494 -96 -514 -102 -20 -7 -2 -17 115 -62
76 -30 144 -54 149 -54 6 0 46 6 90 13 44 7 89 15 100 16 11 2 52 8 90 14 39
5 97 13 130 16 33 4 71 8 85 11 14 2 61 6 105 10 44 3 91 7 105 10 14 2 115 6
225 9 190 4 197 2 70 -19 -16 -3 -84 -14 -150 -26 -66 -11 -133 -23 -150 -26
-16 -2 -55 -9 -85 -15 -30 -6 -66 -12 -80 -15 -14 -2 -36 -7 -50 -9 -64 -13
-77 -16 -105 -20 -16 -3 -43 -8 -60 -12 -16 -3 -37 -7 -45 -8 -37 -5 -91 -18
-87 -21 2 -2 61 -24 131 -49 123 -43 129 -44 194 -35 37 5 94 12 126 16 33 3
68 7 78 9 10 2 55 7 101 10 45 4 98 8 117 10 19 2 121 6 225 9 l190 5 -105
-18 c-169 -30 -172 -31 -230 -42 -30 -5 -104 -19 -165 -29 -125 -23 -188 -35
-205 -40 -7 -2 168 -53 308 -91 88 -23 126 -29 170 -25 79 8 397 18 392 12 -3
-2 -23 -7 -45 -10 -172 -27 -253 -45 -214 -47 8 0 23 -2 34 -4 11 -1 45 -7 75
-11 30 -5 98 -9 150 -9 l95 0 33 -45 c18 -25 38 -52 45 -61 17 -22 43 -58 129
-184 138 -202 202 -299 312 -470 60 -93 128 -199 151 -235 102 -159 452 -751
570 -965 66 -119 148 -272 195 -360 29 -55 65 -122 80 -150 15 -27 40 -74 54
-103 15 -30 29 -52 31 -50 17 16 -299 930 -404 1173 -5 11 -32 76 -61 145
-141 339 -373 819 -520 1075 -34 61 -71 124 -80 141 -103 180 -305 485 -446
674 -60 80 -111 147 -114 150 -3 3 -66 82 -140 175 -108 138 -376 467 -468
577 -75 88 -343 400 -372 433 -379 419 -564 608 -777 793 -147 127 -253 195
-357 228 -166 52 -571 149 -713 169 -21 4 -63 10 -93 15 -30 5 -80 12 -110 16
-56 6 -317 13 -322 9z"/>
<path d="M6157 883 c-2 -1 -337 -9 -777 -18 -294 -6 -823 -17 -965 -20 -456
-10 -734 -17 -850 -20 -71 -2 -274 -6 -450 -10 -333 -7 -420 -9 -895 -20 -157
-3 -361 -8 -455 -10 -373 -8 -777 -17 -915 -20 -80 -2 -196 -4 -259 -4 -241
-2 -86 -13 369 -26 96 -3 243 -8 325 -10 83 -3 245 -7 360 -10 116 -3 269 -7
340 -10 72 -2 227 -7 345 -10 118 -4 269 -8 335 -10 66 -2 210 -7 320 -10 110
-3 272 -7 360 -10 88 -3 239 -7 335 -10 96 -3 245 -7 330 -10 85 -3 236 -7
335 -10 99 -3 252 -7 340 -10 88 -3 243 -7 345 -10 102 -3 246 -8 320 -10 74
-2 232 -7 350 -10 118 -3 278 -8 355 -10 529 -18 488 -18 518 5 29 23 88 123
107 183 14 44 11 48 -78 92 -52 25 -55 26 -248 23 -108 -2 -196 -4 -197 -5z"/>
</g>
</svg>
